<svg xmlns="http://www.w3.org/2000/svg" viewBox="0 0 1400 1180" font-family="'Cinzel','Playfair Display','Trajan Pro',Georgia,'Times New Roman',serif">
<title>Decora Events</title>
<circle cx="700" cy="560" r="300" fill="none" stroke="#B59660" stroke-opacity="0.45" stroke-width="3"/>
<path d="M -0.5,0 Q 0,-0.5 0.5,0 Q 0,0.5 -0.5,0 Z" fill="#B59660" transform="translate(762.4,266.6) rotate(-168.0) scale(60.0,20.0)"/>
<path d="M -0.5,0 Q 0,-0.5 0.5,0 Q 0,0.5 -0.5,0 Z" fill="#CDB278" transform="translate(762.4,266.6) rotate(-140.0) scale(36.0,16.0)"/>
<path d="M -0.5,0 Q 0,-0.5 0.5,0 Q 0,0.5 -0.5,0 Z" fill="#967844" transform="translate(762.4,266.6) rotate(-194.0) scale(30.0,12.0)"/>
<path d="M -0.5,0 Q 0,-0.5 0.5,0 Q 0,0.5 -0.5,0 Z" fill="#B59660" transform="translate(822.0,285.9) rotate(-156.0) scale(69.6,22.9)"/>
<path d="M -0.5,0 Q 0,-0.5 0.5,0 Q 0,0.5 -0.5,0 Z" fill="#CDB278" transform="translate(822.0,285.9) rotate(-128.0) scale(41.7,18.3)"/>
<path d="M -0.5,0 Q 0,-0.5 0.5,0 Q 0,0.5 -0.5,0 Z" fill="#967844" transform="translate(822.0,285.9) rotate(-182.0) scale(34.8,13.7)"/>
<path d="M -0.5,0 Q 0,-0.5 0.5,0 Q 0,0.5 -0.5,0 Z" fill="#B59660" transform="translate(876.3,317.3) rotate(-144.0) scale(78.6,25.6)"/>
<path d="M -0.5,0 Q 0,-0.5 0.5,0 Q 0,0.5 -0.5,0 Z" fill="#CDB278" transform="translate(876.3,317.3) rotate(-116.0) scale(47.2,20.5)"/>
<path d="M -0.5,0 Q 0,-0.5 0.5,0 Q 0,0.5 -0.5,0 Z" fill="#967844" transform="translate(876.3,317.3) rotate(-170.0) scale(39.3,15.3)"/>
<path d="M -0.5,0 Q 0,-0.5 0.5,0 Q 0,0.5 -0.5,0 Z" fill="#B59660" transform="translate(922.9,359.3) rotate(-132.0) scale(86.5,28.0)"/>
<path d="M -0.5,0 Q 0,-0.5 0.5,0 Q 0,0.5 -0.5,0 Z" fill="#CDB278" transform="translate(922.9,359.3) rotate(-104.0) scale(51.9,22.4)"/>
<path d="M -0.5,0 Q 0,-0.5 0.5,0 Q 0,0.5 -0.5,0 Z" fill="#967844" transform="translate(922.9,359.3) rotate(-158.0) scale(43.3,16.8)"/>
<path d="M -0.5,0 Q 0,-0.5 0.5,0 Q 0,0.5 -0.5,0 Z" fill="#B59660" transform="translate(959.8,410.0) rotate(-120.0) scale(92.9,29.9)"/>
<path d="M -0.5,0 Q 0,-0.5 0.5,0 Q 0,0.5 -0.5,0 Z" fill="#CDB278" transform="translate(959.8,410.0) rotate(-92.0) scale(55.8,23.9)"/>
<path d="M -0.5,0 Q 0,-0.5 0.5,0 Q 0,0.5 -0.5,0 Z" fill="#967844" transform="translate(959.8,410.0) rotate(-146.0) scale(46.5,17.9)"/>
<path d="M -0.5,0 Q 0,-0.5 0.5,0 Q 0,0.5 -0.5,0 Z" fill="#B59660" transform="translate(985.3,467.3) rotate(-108.0) scale(97.4,31.2)"/>
<path d="M -0.5,0 Q 0,-0.5 0.5,0 Q 0,0.5 -0.5,0 Z" fill="#CDB278" transform="translate(985.3,467.3) rotate(-80.0) scale(58.4,25.0)"/>
<path d="M -0.5,0 Q 0,-0.5 0.5,0 Q 0,0.5 -0.5,0 Z" fill="#967844" transform="translate(985.3,467.3) rotate(-134.0) scale(48.7,18.7)"/>
<path d="M -0.5,0 Q 0,-0.5 0.5,0 Q 0,0.5 -0.5,0 Z" fill="#B59660" transform="translate(998.4,528.6) rotate(-96.0) scale(99.7,31.9)"/>
<path d="M -0.5,0 Q 0,-0.5 0.5,0 Q 0,0.5 -0.5,0 Z" fill="#CDB278" transform="translate(998.4,528.6) rotate(-68.0) scale(59.8,25.5)"/>
<path d="M -0.5,0 Q 0,-0.5 0.5,0 Q 0,0.5 -0.5,0 Z" fill="#967844" transform="translate(998.4,528.6) rotate(-122.0) scale(49.9,19.1)"/>
<path d="M -0.5,0 Q 0,-0.5 0.5,0 Q 0,0.5 -0.5,0 Z" fill="#B59660" transform="translate(998.4,591.4) rotate(-84.0) scale(99.7,31.9)"/>
<path d="M -0.5,0 Q 0,-0.5 0.5,0 Q 0,0.5 -0.5,0 Z" fill="#CDB278" transform="translate(998.4,591.4) rotate(-56.0) scale(59.8,25.5)"/>
<path d="M -0.5,0 Q 0,-0.5 0.5,0 Q 0,0.5 -0.5,0 Z" fill="#967844" transform="translate(998.4,591.4) rotate(-110.0) scale(49.9,19.1)"/>
<path d="M -0.5,0 Q 0,-0.5 0.5,0 Q 0,0.5 -0.5,0 Z" fill="#B59660" transform="translate(985.3,652.7) rotate(-72.0) scale(97.4,31.2)"/>
<path d="M -0.5,0 Q 0,-0.5 0.5,0 Q 0,0.5 -0.5,0 Z" fill="#CDB278" transform="translate(985.3,652.7) rotate(-44.0) scale(58.4,25.0)"/>
<path d="M -0.5,0 Q 0,-0.5 0.5,0 Q 0,0.5 -0.5,0 Z" fill="#967844" transform="translate(985.3,652.7) rotate(-98.0) scale(48.7,18.7)"/>
<path d="M -0.5,0 Q 0,-0.5 0.5,0 Q 0,0.5 -0.5,0 Z" fill="#B59660" transform="translate(959.8,710.0) rotate(-60.0) scale(92.9,29.9)"/>
<path d="M -0.5,0 Q 0,-0.5 0.5,0 Q 0,0.5 -0.5,0 Z" fill="#CDB278" transform="translate(959.8,710.0) rotate(-32.0) scale(55.8,23.9)"/>
<path d="M -0.5,0 Q 0,-0.5 0.5,0 Q 0,0.5 -0.5,0 Z" fill="#967844" transform="translate(959.8,710.0) rotate(-86.0) scale(46.5,17.9)"/>
<path d="M -0.5,0 Q 0,-0.5 0.5,0 Q 0,0.5 -0.5,0 Z" fill="#B59660" transform="translate(922.9,760.7) rotate(-48.0) scale(86.5,28.0)"/>
<path d="M -0.5,0 Q 0,-0.5 0.5,0 Q 0,0.5 -0.5,0 Z" fill="#CDB278" transform="translate(922.9,760.7) rotate(-20.0) scale(51.9,22.4)"/>
<path d="M -0.5,0 Q 0,-0.5 0.5,0 Q 0,0.5 -0.5,0 Z" fill="#967844" transform="translate(922.9,760.7) rotate(-74.0) scale(43.3,16.8)"/>
<path d="M -0.5,0 Q 0,-0.5 0.5,0 Q 0,0.5 -0.5,0 Z" fill="#B59660" transform="translate(876.3,802.7) rotate(-36.0) scale(78.6,25.6)"/>
<path d="M -0.5,0 Q 0,-0.5 0.5,0 Q 0,0.5 -0.5,0 Z" fill="#CDB278" transform="translate(876.3,802.7) rotate(-8.0) scale(47.2,20.5)"/>
<path d="M -0.5,0 Q 0,-0.5 0.5,0 Q 0,0.5 -0.5,0 Z" fill="#967844" transform="translate(876.3,802.7) rotate(-62.0) scale(39.3,15.3)"/>
<path d="M -0.5,0 Q 0,-0.5 0.5,0 Q 0,0.5 -0.5,0 Z" fill="#B59660" transform="translate(822.0,834.1) rotate(-24.0) scale(69.6,22.9)"/>
<path d="M -0.5,0 Q 0,-0.5 0.5,0 Q 0,0.5 -0.5,0 Z" fill="#CDB278" transform="translate(822.0,834.1) rotate(4.0) scale(41.7,18.3)"/>
<path d="M -0.5,0 Q 0,-0.5 0.5,0 Q 0,0.5 -0.5,0 Z" fill="#967844" transform="translate(822.0,834.1) rotate(-50.0) scale(34.8,13.7)"/>
<path d="M -0.5,0 Q 0,-0.5 0.5,0 Q 0,0.5 -0.5,0 Z" fill="#B59660" transform="translate(762.4,853.4) rotate(-12.0) scale(60.0,20.0)"/>
<path d="M -0.5,0 Q 0,-0.5 0.5,0 Q 0,0.5 -0.5,0 Z" fill="#CDB278" transform="translate(762.4,853.4) rotate(16.0) scale(36.0,16.0)"/>
<path d="M -0.5,0 Q 0,-0.5 0.5,0 Q 0,0.5 -0.5,0 Z" fill="#967844" transform="translate(762.4,853.4) rotate(-38.0) scale(30.0,12.0)"/>
<path d="M -0.5,0 Q 0,-0.5 0.5,0 Q 0,0.5 -0.5,0 Z" fill="#B59660" transform="translate(637.6,266.6) rotate(-192.0) scale(60.0,20.0)"/>
<path d="M -0.5,0 Q 0,-0.5 0.5,0 Q 0,0.5 -0.5,0 Z" fill="#CDB278" transform="translate(637.6,266.6) rotate(-164.0) scale(36.0,16.0)"/>
<path d="M -0.5,0 Q 0,-0.5 0.5,0 Q 0,0.5 -0.5,0 Z" fill="#967844" transform="translate(637.6,266.6) rotate(-218.0) scale(30.0,12.0)"/>
<path d="M -0.5,0 Q 0,-0.5 0.5,0 Q 0,0.5 -0.5,0 Z" fill="#B59660" transform="translate(578.0,285.9) rotate(-204.0) scale(69.6,22.9)"/>
<path d="M -0.5,0 Q 0,-0.5 0.5,0 Q 0,0.5 -0.5,0 Z" fill="#CDB278" transform="translate(578.0,285.9) rotate(-176.0) scale(41.7,18.3)"/>
<path d="M -0.5,0 Q 0,-0.5 0.5,0 Q 0,0.5 -0.5,0 Z" fill="#967844" transform="translate(578.0,285.9) rotate(-230.0) scale(34.8,13.7)"/>
<path d="M -0.5,0 Q 0,-0.5 0.5,0 Q 0,0.5 -0.5,0 Z" fill="#B59660" transform="translate(523.7,317.3) rotate(-216.0) scale(78.6,25.6)"/>
<path d="M -0.5,0 Q 0,-0.5 0.5,0 Q 0,0.5 -0.5,0 Z" fill="#CDB278" transform="translate(523.7,317.3) rotate(-188.0) scale(47.2,20.5)"/>
<path d="M -0.5,0 Q 0,-0.5 0.5,0 Q 0,0.5 -0.5,0 Z" fill="#967844" transform="translate(523.7,317.3) rotate(-242.0) scale(39.3,15.3)"/>
<path d="M -0.5,0 Q 0,-0.5 0.5,0 Q 0,0.5 -0.5,0 Z" fill="#B59660" transform="translate(477.1,359.3) rotate(-228.0) scale(86.5,28.0)"/>
<path d="M -0.5,0 Q 0,-0.5 0.5,0 Q 0,0.5 -0.5,0 Z" fill="#CDB278" transform="translate(477.1,359.3) rotate(-200.0) scale(51.9,22.4)"/>
<path d="M -0.5,0 Q 0,-0.5 0.5,0 Q 0,0.5 -0.5,0 Z" fill="#967844" transform="translate(477.1,359.3) rotate(-254.0) scale(43.3,16.8)"/>
<path d="M -0.5,0 Q 0,-0.5 0.5,0 Q 0,0.5 -0.5,0 Z" fill="#B59660" transform="translate(440.2,410.0) rotate(-240.0) scale(92.9,29.9)"/>
<path d="M -0.5,0 Q 0,-0.5 0.5,0 Q 0,0.5 -0.5,0 Z" fill="#CDB278" transform="translate(440.2,410.0) rotate(-212.0) scale(55.8,23.9)"/>
<path d="M -0.5,0 Q 0,-0.5 0.5,0 Q 0,0.5 -0.5,0 Z" fill="#967844" transform="translate(440.2,410.0) rotate(-266.0) scale(46.5,17.9)"/>
<path d="M -0.5,0 Q 0,-0.5 0.5,0 Q 0,0.5 -0.5,0 Z" fill="#B59660" transform="translate(414.7,467.3) rotate(-252.0) scale(97.4,31.2)"/>
<path d="M -0.5,0 Q 0,-0.5 0.5,0 Q 0,0.5 -0.5,0 Z" fill="#CDB278" transform="translate(414.7,467.3) rotate(-224.0) scale(58.4,25.0)"/>
<path d="M -0.5,0 Q 0,-0.5 0.5,0 Q 0,0.5 -0.5,0 Z" fill="#967844" transform="translate(414.7,467.3) rotate(-278.0) scale(48.7,18.7)"/>
<path d="M -0.5,0 Q 0,-0.5 0.5,0 Q 0,0.5 -0.5,0 Z" fill="#B59660" transform="translate(401.6,528.6) rotate(-264.0) scale(99.7,31.9)"/>
<path d="M -0.5,0 Q 0,-0.5 0.5,0 Q 0,0.5 -0.5,0 Z" fill="#CDB278" transform="translate(401.6,528.6) rotate(-236.0) scale(59.8,25.5)"/>
<path d="M -0.5,0 Q 0,-0.5 0.5,0 Q 0,0.5 -0.5,0 Z" fill="#967844" transform="translate(401.6,528.6) rotate(-290.0) scale(49.9,19.1)"/>
<path d="M -0.5,0 Q 0,-0.5 0.5,0 Q 0,0.5 -0.5,0 Z" fill="#B59660" transform="translate(401.6,591.4) rotate(-276.0) scale(99.7,31.9)"/>
<path d="M -0.5,0 Q 0,-0.5 0.5,0 Q 0,0.5 -0.5,0 Z" fill="#CDB278" transform="translate(401.6,591.4) rotate(-248.0) scale(59.8,25.5)"/>
<path d="M -0.5,0 Q 0,-0.5 0.5,0 Q 0,0.5 -0.5,0 Z" fill="#967844" transform="translate(401.6,591.4) rotate(-302.0) scale(49.9,19.1)"/>
<path d="M -0.5,0 Q 0,-0.5 0.5,0 Q 0,0.5 -0.5,0 Z" fill="#B59660" transform="translate(414.7,652.7) rotate(-288.0) scale(97.4,31.2)"/>
<path d="M -0.5,0 Q 0,-0.5 0.5,0 Q 0,0.5 -0.5,0 Z" fill="#CDB278" transform="translate(414.7,652.7) rotate(-260.0) scale(58.4,25.0)"/>
<path d="M -0.5,0 Q 0,-0.5 0.5,0 Q 0,0.5 -0.5,0 Z" fill="#967844" transform="translate(414.7,652.7) rotate(-314.0) scale(48.7,18.7)"/>
<path d="M -0.5,0 Q 0,-0.5 0.5,0 Q 0,0.5 -0.5,0 Z" fill="#B59660" transform="translate(440.2,710.0) rotate(-300.0) scale(92.9,29.9)"/>
<path d="M -0.5,0 Q 0,-0.5 0.5,0 Q 0,0.5 -0.5,0 Z" fill="#CDB278" transform="translate(440.2,710.0) rotate(-272.0) scale(55.8,23.9)"/>
<path d="M -0.5,0 Q 0,-0.5 0.5,0 Q 0,0.5 -0.5,0 Z" fill="#967844" transform="translate(440.2,710.0) rotate(-326.0) scale(46.5,17.9)"/>
<path d="M -0.5,0 Q 0,-0.5 0.5,0 Q 0,0.5 -0.5,0 Z" fill="#B59660" transform="translate(477.1,760.7) rotate(-312.0) scale(86.5,28.0)"/>
<path d="M -0.5,0 Q 0,-0.5 0.5,0 Q 0,0.5 -0.5,0 Z" fill="#CDB278" transform="translate(477.1,760.7) rotate(-284.0) scale(51.9,22.4)"/>
<path d="M -0.5,0 Q 0,-0.5 0.5,0 Q 0,0.5 -0.5,0 Z" fill="#967844" transform="translate(477.1,760.7) rotate(-338.0) scale(43.3,16.8)"/>
<path d="M -0.5,0 Q 0,-0.5 0.5,0 Q 0,0.5 -0.5,0 Z" fill="#B59660" transform="translate(523.7,802.7) rotate(-324.0) scale(78.6,25.6)"/>
<path d="M -0.5,0 Q 0,-0.5 0.5,0 Q 0,0.5 -0.5,0 Z" fill="#CDB278" transform="translate(523.7,802.7) rotate(-296.0) scale(47.2,20.5)"/>
<path d="M -0.5,0 Q 0,-0.5 0.5,0 Q 0,0.5 -0.5,0 Z" fill="#967844" transform="translate(523.7,802.7) rotate(-350.0) scale(39.3,15.3)"/>
<path d="M -0.5,0 Q 0,-0.5 0.5,0 Q 0,0.5 -0.5,0 Z" fill="#B59660" transform="translate(578.0,834.1) rotate(-336.0) scale(69.6,22.9)"/>
<path d="M -0.5,0 Q 0,-0.5 0.5,0 Q 0,0.5 -0.5,0 Z" fill="#CDB278" transform="translate(578.0,834.1) rotate(-308.0) scale(41.7,18.3)"/>
<path d="M -0.5,0 Q 0,-0.5 0.5,0 Q 0,0.5 -0.5,0 Z" fill="#967844" transform="translate(578.0,834.1) rotate(-362.0) scale(34.8,13.7)"/>
<path d="M -0.5,0 Q 0,-0.5 0.5,0 Q 0,0.5 -0.5,0 Z" fill="#B59660" transform="translate(637.6,853.4) rotate(-348.0) scale(60.0,20.0)"/>
<path d="M -0.5,0 Q 0,-0.5 0.5,0 Q 0,0.5 -0.5,0 Z" fill="#CDB278" transform="translate(637.6,853.4) rotate(-320.0) scale(36.0,16.0)"/>
<path d="M -0.5,0 Q 0,-0.5 0.5,0 Q 0,0.5 -0.5,0 Z" fill="#967844" transform="translate(637.6,853.4) rotate(-374.0) scale(30.0,12.0)"/>
<text x="700" y="560" fill="#6E655A" font-size="360" font-weight="700" text-anchor="middle" dominant-baseline="central">D</text>
<text x="700" y="1010" fill="#827C6C" font-size="132" letter-spacing="12" text-anchor="middle">DECORA EVENTS</text>
<text x="700" y="1125" fill="#B59660" font-size="60" letter-spacing="30" text-anchor="middle">DESDE 2026</text>
</svg>