<svg xmlns="http://www.w3.org/2000/svg" viewBox="0 0 260 100" width="260" height="100">
  <rect width="260" height="100" fill="#FBF6F0"/>
  <!-- Laurel left -->
  <g fill="none" stroke="#95744E" stroke-width="1.4">
    <path d="M42 50 Q36 44 34 36 Q40 38 44 44"/>
    <path d="M42 50 Q34 48 30 41 Q36 41 42 46"/>
    <path d="M42 50 Q33 54 30 61 Q36 59 42 54"/>
    <path d="M42 50 Q36 57 34 65 Q40 63 44 57"/>
    <path d="M42 50 Q40 42 44 35 Q47 41 45 48"/>
    <path d="M42 50 Q40 59 44 66 Q47 60 45 53"/>
  </g>
  <!-- Laurel right -->
  <g fill="none" stroke="#95744E" stroke-width="1.4">
    <path d="M218 50 Q224 44 226 36 Q220 38 216 44"/>
    <path d="M218 50 Q226 48 230 41 Q224 41 218 46"/>
    <path d="M218 50 Q227 54 230 61 Q224 59 218 54"/>
    <path d="M218 50 Q224 57 226 65 Q220 63 216 57"/>
    <path d="M218 50 Q220 42 216 35 Q213 41 215 48"/>
    <path d="M218 50 Q220 59 216 66 Q213 60 215 53"/>
  </g>
  <!-- D monogram circle -->
  <circle cx="130" cy="50" r="22" fill="none" stroke="#95744E" stroke-width="1.2"/>
  <!-- D letter -->
  <text x="130" y="57" font-family="Georgia, serif" font-size="24" font-weight="600" fill="#7A5934" text-anchor="middle">D</text>
  <!-- Brand name -->
  <text x="130" y="82" font-family="Georgia, serif" font-size="9.5" fill="#95744E" text-anchor="middle" letter-spacing="5">DECORA EVENTS</text>
  <!-- Tagline -->
  <text x="130" y="14" font-family="Georgia, serif" font-size="6.5" fill="#BA9972" text-anchor="middle" letter-spacing="3">DESDE 2026</text>
</svg>
